<svg width="793" height="100" viewBox="0 0 793 100" fill="none" xmlns="http://www.w3.org/2000/svg">
<path d="M85.6457 16.6389V83.3056C85.6457 84.0694 85.0207 84.6944 84.2568 84.6944H17.5901C16.8262 84.6944 16.2012 84.0694 16.2012 83.3056V16.6389C16.2012 15.875 16.8262 15.25 17.5901 15.25H84.2568C85.0207 15.25 85.6457 15.875 85.6457 16.6389Z" fill="#F4AA41"/>
<path d="M62.2707 81.4237V84.6944H39.5901V81.4237C39.5901 79.864 41.4651 78.5879 43.7568 78.5879H58.104C60.3957 78.5879 62.2707 79.8642 62.2707 81.4237Z" fill="#D0CFCE"/>
<path d="M62.189 16.6187V23.8007C62.189 25.2783 60.314 26.4872 58.0223 26.4872H43.6751C41.3835 26.4872 39.5085 25.2783 39.5085 23.8007V16.6187" fill="#D0CFCE"/>
<path d="M85.6457 16.6389V83.3056C85.6457 84.0694 85.0207 84.6944 84.2568 84.6944H17.5901C16.8262 84.6944 16.2012 84.0694 16.2012 83.3056V16.6389C16.2012 15.875 16.8262 15.25 17.5901 15.25H84.2568C85.0207 15.25 85.6457 15.875 85.6457 16.6389Z" stroke="black" stroke-width="2" stroke-miterlimit="10" stroke-linecap="round" stroke-linejoin="round"/>
<path d="M58.1929 40.8858H43.6679C41.4239 40.8858 39.5878 39.0499 39.5878 36.8057C39.5878 34.5617 41.4237 32.7256 43.6679 32.7256H58.1929C60.4369 32.7256 62.273 34.5615 62.273 36.8057C62.273 39.0499 60.4369 40.8858 58.1929 40.8858Z" fill="black" stroke="black" stroke-width="2" stroke-miterlimit="10"/>
<path d="M62.2707 81.4237V84.6944H39.5901V81.4237C39.5901 79.864 41.4651 78.5879 43.7568 78.5879H58.104C60.3957 78.5879 62.2707 79.8642 62.2707 81.4237Z" stroke="black" stroke-width="2" stroke-miterlimit="10" stroke-linecap="round" stroke-linejoin="round"/>
<path d="M62.189 16.6187V23.8007C62.189 25.2783 60.314 26.4872 58.0223 26.4872H43.6751C41.3835 26.4872 39.5085 25.2783 39.5085 23.8007V16.6187" stroke="black" stroke-width="2" stroke-miterlimit="10" stroke-linecap="round" stroke-linejoin="round"/>
<path d="M125.164 34.5V40.6406H129.898V43.9922H125.164V59.7188C125.164 60.7344 125.375 61.5 125.797 62.0156C126.219 62.5156 126.938 62.7656 127.953 62.7656C128.453 62.7656 129.141 62.6719 130.016 62.4844V66C128.875 66.3125 127.766 66.4688 126.688 66.4688C124.75 66.4688 123.289 65.8828 122.305 64.7109C121.32 63.5391 120.828 61.875 120.828 59.7188V43.9922H116.211V40.6406H120.828V34.5H125.164ZM143.281 59.6484L149.188 40.6406H153.828L143.633 69.9141C142.055 74.1328 139.547 76.2422 136.109 76.2422L135.289 76.1719L133.672 75.8672V72.3516L134.844 72.4453C136.312 72.4453 137.453 72.1484 138.266 71.5547C139.094 70.9609 139.773 69.875 140.305 68.2969L141.266 65.7188L132.219 40.6406H136.953L143.281 59.6484ZM179.141 53.6016C179.141 57.4609 178.258 60.5703 176.492 62.9297C174.727 65.2891 172.336 66.4688 169.32 66.4688C166.242 66.4688 163.82 65.4922 162.055 63.5391V75.75H157.719V40.6406H161.68L161.891 43.4531C163.656 41.2656 166.109 40.1719 169.25 40.1719C172.297 40.1719 174.703 41.3203 176.469 43.6172C178.25 45.9141 179.141 49.1094 179.141 53.2031V53.6016ZM174.805 53.1094C174.805 50.25 174.195 47.9922 172.977 46.3359C171.758 44.6797 170.086 43.8516 167.961 43.8516C165.336 43.8516 163.367 45.0156 162.055 47.3438V59.4609C163.352 61.7734 165.336 62.9297 168.008 62.9297C170.086 62.9297 171.734 62.1094 172.953 60.4688C174.188 58.8125 174.805 56.3594 174.805 53.1094ZM195.195 66.4688C191.758 66.4688 188.961 65.3438 186.805 63.0938C184.648 60.8281 183.57 57.8047 183.57 54.0234V53.2266C183.57 50.7109 184.047 48.4688 185 46.5C185.969 44.5156 187.312 42.9688 189.031 41.8594C190.766 40.7344 192.641 40.1719 194.656 40.1719C197.953 40.1719 200.516 41.2578 202.344 43.4297C204.172 45.6016 205.086 48.7109 205.086 52.7578V54.5625H187.906C187.969 57.0625 188.695 59.0859 190.086 60.6328C191.492 62.1641 193.273 62.9297 195.43 62.9297C196.961 62.9297 198.258 62.6172 199.32 61.9922C200.383 61.3672 201.312 60.5391 202.109 59.5078L204.758 61.5703C202.633 64.8359 199.445 66.4688 195.195 66.4688ZM194.656 43.7344C192.906 43.7344 191.438 44.375 190.25 45.6562C189.062 46.9219 188.328 48.7031 188.047 51H200.75V50.6719C200.625 48.4688 200.031 46.7656 198.969 45.5625C197.906 44.3438 196.469 43.7344 194.656 43.7344ZM224.891 59.2734C224.891 58.1016 224.445 57.1953 223.555 56.5547C222.68 55.8984 221.141 55.3359 218.938 54.8672C216.75 54.3984 215.008 53.8359 213.711 53.1797C212.43 52.5234 211.477 51.7422 210.852 50.8359C210.242 49.9297 209.938 48.8516 209.938 47.6016C209.938 45.5234 210.812 43.7656 212.562 42.3281C214.328 40.8906 216.578 40.1719 219.312 40.1719C222.188 40.1719 224.516 40.9141 226.297 42.3984C228.094 43.8828 228.992 45.7812 228.992 48.0938H224.633C224.633 46.9062 224.125 45.8828 223.109 45.0234C222.109 44.1641 220.844 43.7344 219.312 43.7344C217.734 43.7344 216.5 44.0781 215.609 44.7656C214.719 45.4531 214.273 46.3516 214.273 47.4609C214.273 48.5078 214.688 49.2969 215.516 49.8281C216.344 50.3594 217.836 50.8672 219.992 51.3516C222.164 51.8359 223.922 52.4141 225.266 53.0859C226.609 53.7578 227.602 54.5703 228.242 55.5234C228.898 56.4609 229.227 57.6094 229.227 58.9688C229.227 61.2344 228.32 63.0547 226.508 64.4297C224.695 65.7891 222.344 66.4688 219.453 66.4688C217.422 66.4688 215.625 66.1094 214.062 65.3906C212.5 64.6719 211.273 63.6719 210.383 62.3906C209.508 61.0938 209.07 59.6953 209.07 58.1953H213.406C213.484 59.6484 214.062 60.8047 215.141 61.6641C216.234 62.5078 217.672 62.9297 219.453 62.9297C221.094 62.9297 222.406 62.6016 223.391 61.9453C224.391 61.2734 224.891 60.3828 224.891 59.2734ZM245.047 62.9297C246.594 62.9297 247.945 62.4609 249.102 61.5234C250.258 60.5859 250.898 59.4141 251.023 58.0078H255.125C255.047 59.4609 254.547 60.8438 253.625 62.1562C252.703 63.4688 251.469 64.5156 249.922 65.2969C248.391 66.0781 246.766 66.4688 245.047 66.4688C241.594 66.4688 238.844 65.3203 236.797 63.0234C234.766 60.7109 233.75 57.5547 233.75 53.5547V52.8281C233.75 50.3594 234.203 48.1641 235.109 46.2422C236.016 44.3203 237.312 42.8281 239 41.7656C240.703 40.7031 242.711 40.1719 245.023 40.1719C247.867 40.1719 250.227 41.0234 252.102 42.7266C253.992 44.4297 255 46.6406 255.125 49.3594H251.023C250.898 47.7188 250.273 46.375 249.148 45.3281C248.039 44.2656 246.664 43.7344 245.023 43.7344C242.82 43.7344 241.109 44.5312 239.891 46.125C238.688 47.7031 238.086 49.9922 238.086 52.9922V53.8125C238.086 56.7344 238.688 58.9844 239.891 60.5625C241.094 62.1406 242.812 62.9297 245.047 62.9297ZM272.258 44.5312C271.602 44.4219 270.891 44.3672 270.125 44.3672C267.281 44.3672 265.352 45.5781 264.336 48V66H260V40.6406H264.219L264.289 43.5703C265.711 41.3047 267.727 40.1719 270.336 40.1719C271.18 40.1719 271.82 40.2812 272.258 40.5V44.5312ZM280.977 66H276.641V40.6406H280.977V66ZM276.289 33.9141C276.289 33.2109 276.5 32.6172 276.922 32.1328C277.359 31.6484 278 31.4062 278.844 31.4062C279.688 31.4062 280.328 31.6484 280.766 32.1328C281.203 32.6172 281.422 33.2109 281.422 33.9141C281.422 34.6172 281.203 35.2031 280.766 35.6719C280.328 36.1406 279.688 36.375 278.844 36.375C278 36.375 277.359 36.1406 276.922 35.6719C276.5 35.2031 276.289 34.6172 276.289 33.9141ZM309.359 53.6016C309.359 57.4609 308.477 60.5703 306.711 62.9297C304.945 65.2891 302.555 66.4688 299.539 66.4688C296.461 66.4688 294.039 65.4922 292.273 63.5391V75.75H287.938V40.6406H291.898L292.109 43.4531C293.875 41.2656 296.328 40.1719 299.469 40.1719C302.516 40.1719 304.922 41.3203 306.688 43.6172C308.469 45.9141 309.359 49.1094 309.359 53.2031V53.6016ZM305.023 53.1094C305.023 50.25 304.414 47.9922 303.195 46.3359C301.977 44.6797 300.305 43.8516 298.18 43.8516C295.555 43.8516 293.586 45.0156 292.273 47.3438V59.4609C293.57 61.7734 295.555 62.9297 298.227 62.9297C300.305 62.9297 301.953 62.1094 303.172 60.4688C304.406 58.8125 305.023 56.3594 305.023 53.1094ZM320.773 34.5V40.6406H325.508V43.9922H320.773V59.7188C320.773 60.7344 320.984 61.5 321.406 62.0156C321.828 62.5156 322.547 62.7656 323.562 62.7656C324.062 62.7656 324.75 62.6719 325.625 62.4844V66C324.484 66.3125 323.375 66.4688 322.297 66.4688C320.359 66.4688 318.898 65.8828 317.914 64.7109C316.93 63.5391 316.438 61.875 316.438 59.7188V43.9922H311.82V40.6406H316.438V34.5H320.773ZM339.617 53.2734H328.18V49.7344H339.617V53.2734ZM365.281 53.6016C365.281 57.4609 364.398 60.5703 362.633 62.9297C360.867 65.2891 358.477 66.4688 355.461 66.4688C352.383 66.4688 349.961 65.4922 348.195 63.5391V75.75H343.859V40.6406H347.82L348.031 43.4531C349.797 41.2656 352.25 40.1719 355.391 40.1719C358.438 40.1719 360.844 41.3203 362.609 43.6172C364.391 45.9141 365.281 49.1094 365.281 53.2031V53.6016ZM360.945 53.1094C360.945 50.25 360.336 47.9922 359.117 46.3359C357.898 44.6797 356.227 43.8516 354.102 43.8516C351.477 43.8516 349.508 45.0156 348.195 47.3438V59.4609C349.492 61.7734 351.477 62.9297 354.148 62.9297C356.227 62.9297 357.875 62.1094 359.094 60.4688C360.328 58.8125 360.945 56.3594 360.945 53.1094ZM386.469 66C386.219 65.5 386.016 64.6094 385.859 63.3281C383.844 65.4219 381.438 66.4688 378.641 66.4688C376.141 66.4688 374.086 65.7656 372.477 64.3594C370.883 62.9375 370.086 61.1406 370.086 58.9688C370.086 56.3281 371.086 54.2812 373.086 52.8281C375.102 51.3594 377.93 50.625 381.57 50.625H385.789V48.6328C385.789 47.1172 385.336 45.9141 384.43 45.0234C383.523 44.1172 382.188 43.6641 380.422 43.6641C378.875 43.6641 377.578 44.0547 376.531 44.8359C375.484 45.6172 374.961 46.5625 374.961 47.6719H370.602C370.602 46.4062 371.047 45.1875 371.938 44.0156C372.844 42.8281 374.062 41.8906 375.594 41.2031C377.141 40.5156 378.836 40.1719 380.68 40.1719C383.602 40.1719 385.891 40.9062 387.547 42.375C389.203 43.8281 390.062 45.8359 390.125 48.3984V60.0703C390.125 62.3984 390.422 64.25 391.016 65.625V66H386.469ZM379.273 62.6953C380.633 62.6953 381.922 62.3438 383.141 61.6406C384.359 60.9375 385.242 60.0234 385.789 58.8984V53.6953H382.391C377.078 53.6953 374.422 55.25 374.422 58.3594C374.422 59.7188 374.875 60.7812 375.781 61.5469C376.688 62.3125 377.852 62.6953 379.273 62.6953ZM407.094 62.9297C408.641 62.9297 409.992 62.4609 411.148 61.5234C412.305 60.5859 412.945 59.4141 413.07 58.0078H417.172C417.094 59.4609 416.594 60.8438 415.672 62.1562C414.75 63.4688 413.516 64.5156 411.969 65.2969C410.438 66.0781 408.812 66.4688 407.094 66.4688C403.641 66.4688 400.891 65.3203 398.844 63.0234C396.812 60.7109 395.797 57.5547 395.797 53.5547V52.8281C395.797 50.3594 396.25 48.1641 397.156 46.2422C398.062 44.3203 399.359 42.8281 401.047 41.7656C402.75 40.7031 404.758 40.1719 407.07 40.1719C409.914 40.1719 412.273 41.0234 414.148 42.7266C416.039 44.4297 417.047 46.6406 417.172 49.3594H413.07C412.945 47.7188 412.32 46.375 411.195 45.3281C410.086 44.2656 408.711 43.7344 407.07 43.7344C404.867 43.7344 403.156 44.5312 401.938 46.125C400.734 47.7031 400.133 49.9922 400.133 52.9922V53.8125C400.133 56.7344 400.734 58.9844 401.938 60.5625C403.141 62.1406 404.859 62.9297 407.094 62.9297ZM429.125 54.2578L426.406 57.0938V66H422.07V30H426.406V51.7734L428.727 48.9844L436.625 40.6406H441.898L432.031 51.2344L443.047 66H437.961L429.125 54.2578ZM462.031 66C461.781 65.5 461.578 64.6094 461.422 63.3281C459.406 65.4219 457 66.4688 454.203 66.4688C451.703 66.4688 449.648 65.7656 448.039 64.3594C446.445 62.9375 445.648 61.1406 445.648 58.9688C445.648 56.3281 446.648 54.2812 448.648 52.8281C450.664 51.3594 453.492 50.625 457.133 50.625H461.352V48.6328C461.352 47.1172 460.898 45.9141 459.992 45.0234C459.086 44.1172 457.75 43.6641 455.984 43.6641C454.438 43.6641 453.141 44.0547 452.094 44.8359C451.047 45.6172 450.523 46.5625 450.523 47.6719H446.164C446.164 46.4062 446.609 45.1875 447.5 44.0156C448.406 42.8281 449.625 41.8906 451.156 41.2031C452.703 40.5156 454.398 40.1719 456.242 40.1719C459.164 40.1719 461.453 40.9062 463.109 42.375C464.766 43.8281 465.625 45.8359 465.688 48.3984V60.0703C465.688 62.3984 465.984 64.25 466.578 65.625V66H462.031ZM454.836 62.6953C456.195 62.6953 457.484 62.3438 458.703 61.6406C459.922 60.9375 460.805 60.0234 461.352 58.8984V53.6953H457.953C452.641 53.6953 449.984 55.25 449.984 58.3594C449.984 59.7188 450.438 60.7812 451.344 61.5469C452.25 62.3125 453.414 62.6953 454.836 62.6953ZM471.453 53.1094C471.453 49.1562 472.367 46.0156 474.195 43.6875C476.023 41.3438 478.445 40.1719 481.461 40.1719C484.555 40.1719 486.969 41.2656 488.703 43.4531L488.914 40.6406H492.875V65.3906C492.875 68.6719 491.898 71.2578 489.945 73.1484C488.008 75.0391 485.398 75.9844 482.117 75.9844C480.289 75.9844 478.5 75.5938 476.75 74.8125C475 74.0312 473.664 72.9609 472.742 71.6016L474.992 69C476.852 71.2969 479.125 72.4453 481.812 72.4453C483.922 72.4453 485.562 71.8516 486.734 70.6641C487.922 69.4766 488.516 67.8047 488.516 65.6484V63.4688C486.781 65.4688 484.414 66.4688 481.414 66.4688C478.445 66.4688 476.039 65.2734 474.195 62.8828C472.367 60.4922 471.453 57.2344 471.453 53.1094ZM475.812 53.6016C475.812 56.4609 476.398 58.7109 477.57 60.3516C478.742 61.9766 480.383 62.7891 482.492 62.7891C485.227 62.7891 487.234 61.5469 488.516 59.0625V47.4844C487.188 45.0625 485.195 43.8516 482.539 43.8516C480.43 43.8516 478.781 44.6719 477.594 46.3125C476.406 47.9531 475.812 50.3828 475.812 53.6016ZM509.961 66.4688C506.523 66.4688 503.727 65.3438 501.57 63.0938C499.414 60.8281 498.336 57.8047 498.336 54.0234V53.2266C498.336 50.7109 498.812 48.4688 499.766 46.5C500.734 44.5156 502.078 42.9688 503.797 41.8594C505.531 40.7344 507.406 40.1719 509.422 40.1719C512.719 40.1719 515.281 41.2578 517.109 43.4297C518.938 45.6016 519.852 48.7109 519.852 52.7578V54.5625H502.672C502.734 57.0625 503.461 59.0859 504.852 60.6328C506.258 62.1641 508.039 62.9297 510.195 62.9297C511.727 62.9297 513.023 62.6172 514.086 61.9922C515.148 61.3672 516.078 60.5391 516.875 59.5078L519.523 61.5703C517.398 64.8359 514.211 66.4688 509.961 66.4688ZM509.422 43.7344C507.672 43.7344 506.203 44.375 505.016 45.6562C503.828 46.9219 503.094 48.7031 502.812 51H515.516V50.6719C515.391 48.4688 514.797 46.7656 513.734 45.5625C512.672 44.3438 511.234 43.7344 509.422 43.7344ZM533.914 53.2734H522.477V49.7344H533.914V53.2734ZM552.922 59.2734C552.922 58.1016 552.477 57.1953 551.586 56.5547C550.711 55.8984 549.172 55.3359 546.969 54.8672C544.781 54.3984 543.039 53.8359 541.742 53.1797C540.461 52.5234 539.508 51.7422 538.883 50.8359C538.273 49.9297 537.969 48.8516 537.969 47.6016C537.969 45.5234 538.844 43.7656 540.594 42.3281C542.359 40.8906 544.609 40.1719 547.344 40.1719C550.219 40.1719 552.547 40.9141 554.328 42.3984C556.125 43.8828 557.023 45.7812 557.023 48.0938H552.664C552.664 46.9062 552.156 45.8828 551.141 45.0234C550.141 44.1641 548.875 43.7344 547.344 43.7344C545.766 43.7344 544.531 44.0781 543.641 44.7656C542.75 45.4531 542.305 46.3516 542.305 47.4609C542.305 48.5078 542.719 49.2969 543.547 49.8281C544.375 50.3594 545.867 50.8672 548.023 51.3516C550.195 51.8359 551.953 52.4141 553.297 53.0859C554.641 53.7578 555.633 54.5703 556.273 55.5234C556.93 56.4609 557.258 57.6094 557.258 58.9688C557.258 61.2344 556.352 63.0547 554.539 64.4297C552.727 65.7891 550.375 66.4688 547.484 66.4688C545.453 66.4688 543.656 66.1094 542.094 65.3906C540.531 64.6719 539.305 63.6719 538.414 62.3906C537.539 61.0938 537.102 59.6953 537.102 58.1953H541.438C541.516 59.6484 542.094 60.8047 543.172 61.6641C544.266 62.5078 545.703 62.9297 547.484 62.9297C549.125 62.9297 550.438 62.6016 551.422 61.9453C552.422 61.2734 552.922 60.3828 552.922 59.2734ZM568.789 34.5V40.6406H573.523V43.9922H568.789V59.7188C568.789 60.7344 569 61.5 569.422 62.0156C569.844 62.5156 570.562 62.7656 571.578 62.7656C572.078 62.7656 572.766 62.6719 573.641 62.4844V66C572.5 66.3125 571.391 66.4688 570.312 66.4688C568.375 66.4688 566.914 65.8828 565.93 64.7109C564.945 63.5391 564.453 61.875 564.453 59.7188V43.9922H559.836V40.6406H564.453V34.5H568.789ZM594.266 66C594.016 65.5 593.812 64.6094 593.656 63.3281C591.641 65.4219 589.234 66.4688 586.438 66.4688C583.938 66.4688 581.883 65.7656 580.273 64.3594C578.68 62.9375 577.883 61.1406 577.883 58.9688C577.883 56.3281 578.883 54.2812 580.883 52.8281C582.898 51.3594 585.727 50.625 589.367 50.625H593.586V48.6328C593.586 47.1172 593.133 45.9141 592.227 45.0234C591.32 44.1172 589.984 43.6641 588.219 43.6641C586.672 43.6641 585.375 44.0547 584.328 44.8359C583.281 45.6172 582.758 46.5625 582.758 47.6719H578.398C578.398 46.4062 578.844 45.1875 579.734 44.0156C580.641 42.8281 581.859 41.8906 583.391 41.2031C584.938 40.5156 586.633 40.1719 588.477 40.1719C591.398 40.1719 593.688 40.9062 595.344 42.375C597 43.8281 597.859 45.8359 597.922 48.3984V60.0703C597.922 62.3984 598.219 64.25 598.812 65.625V66H594.266ZM587.07 62.6953C588.43 62.6953 589.719 62.3438 590.938 61.6406C592.156 60.9375 593.039 60.0234 593.586 58.8984V53.6953H590.188C584.875 53.6953 582.219 55.25 582.219 58.3594C582.219 59.7188 582.672 60.7812 583.578 61.5469C584.484 62.3125 585.648 62.6953 587.07 62.6953ZM616.977 44.5312C616.32 44.4219 615.609 44.3672 614.844 44.3672C612 44.3672 610.07 45.5781 609.055 48V66H604.719V40.6406H608.938L609.008 43.5703C610.43 41.3047 612.445 40.1719 615.055 40.1719C615.898 40.1719 616.539 40.2812 616.977 40.5V44.5312ZM628.039 34.5V40.6406H632.773V43.9922H628.039V59.7188C628.039 60.7344 628.25 61.5 628.672 62.0156C629.094 62.5156 629.812 62.7656 630.828 62.7656C631.328 62.7656 632.016 62.6719 632.891 62.4844V66C631.75 66.3125 630.641 66.4688 629.562 66.4688C627.625 66.4688 626.164 65.8828 625.18 64.7109C624.195 63.5391 623.703 61.875 623.703 59.7188V43.9922H619.086V40.6406H623.703V34.5H628.039ZM648.383 66.4688C644.945 66.4688 642.148 65.3438 639.992 63.0938C637.836 60.8281 636.758 57.8047 636.758 54.0234V53.2266C636.758 50.7109 637.234 48.4688 638.188 46.5C639.156 44.5156 640.5 42.9688 642.219 41.8594C643.953 40.7344 645.828 40.1719 647.844 40.1719C651.141 40.1719 653.703 41.2578 655.531 43.4297C657.359 45.6016 658.273 48.7109 658.273 52.7578V54.5625H641.094C641.156 57.0625 641.883 59.0859 643.273 60.6328C644.68 62.1641 646.461 62.9297 648.617 62.9297C650.148 62.9297 651.445 62.6172 652.508 61.9922C653.57 61.3672 654.5 60.5391 655.297 59.5078L657.945 61.5703C655.82 64.8359 652.633 66.4688 648.383 66.4688ZM647.844 43.7344C646.094 43.7344 644.625 44.375 643.438 45.6562C642.25 46.9219 641.516 48.7031 641.234 51H653.938V50.6719C653.812 48.4688 653.219 46.7656 652.156 45.5625C651.094 44.3438 649.656 43.7344 647.844 43.7344ZM675.57 44.5312C674.914 44.4219 674.203 44.3672 673.438 44.3672C670.594 44.3672 668.664 45.5781 667.648 48V66H663.312V40.6406H667.531L667.602 43.5703C669.023 41.3047 671.039 40.1719 673.648 40.1719C674.492 40.1719 675.133 40.2812 675.57 40.5V44.5312Z" fill="black"/>
<g clip-path="url(#clip0)">
<path d="M715.389 66.825C711.002 71.2186 708.928 77.3251 709.875 83.0583C715.608 83.9976 721.712 81.92 726.101 77.5347C730.488 73.1411 732.562 67.0346 731.615 61.3014C725.882 60.3621 719.779 62.4397 715.389 66.825Z" fill="#FCEA2B"/>
<path d="M737.407 63.6653C737.14 65.0069 736.482 66.2397 735.516 67.2079C735.045 67.6764 734.509 68.0747 733.925 68.3907C736.929 72.5179 739.145 77.1194 740.446 81.9332C741.431 81.0699 742.378 80.1574 743.282 79.1992C745.94 76.3737 748.211 73.1747 750.02 69.7094C751.757 66.3482 753.041 62.7758 753.832 59.1047C748.653 61.8192 743.037 63.3785 737.407 63.6654L737.407 63.6653Z" fill="#61B2E4"/>
<path d="M713.726 49.6514C712.768 50.5542 711.855 51.499 710.992 52.4824C715.808 53.7758 720.415 55.9837 724.548 58.9801C724.862 58.4051 725.257 57.8775 725.719 57.4133C726.684 56.4501 727.912 55.7932 729.249 55.5247C729.542 49.8987 731.105 44.2887 733.823 39.1164C733.826 39.1112 733.828 39.1061 733.831 39.1008C730.157 39.8907 726.582 41.1742 723.219 42.9111C719.752 44.7208 716.552 46.9929 713.726 49.6514Z" fill="#92D3F5"/>
<path d="M741.362 28.8153C734.097 36.1079 729.742 45.709 729.247 55.5278C731.522 55.067 733.876 55.7752 735.518 57.4145C737.166 59.0628 737.873 61.4288 737.402 63.7106C747.229 63.2093 756.835 58.8461 764.127 51.572C773.448 42.2346 777.855 29.2567 775.84 17.0733C773.435 16.6807 770.973 16.5346 768.491 16.6371C758.527 17.0435 748.755 21.4299 741.363 28.8145L741.362 28.8153ZM755.597 28.0804C758.154 25.5231 762.301 25.5224 764.859 28.0788C764.86 28.0793 764.86 28.0799 764.861 28.0804C767.419 30.637 767.42 34.7825 764.863 37.3397C764.862 37.3403 764.862 37.3408 764.861 37.3414C762.303 39.8975 758.156 39.8967 755.599 37.3395C753.041 34.7831 753.04 30.6378 755.597 28.0804Z" fill="#EA5A47"/>
<path d="M729.858 72.2736C728.642 73.639 727.234 74.8385 725.682 75.8315C720.833 78.9188 714.953 79.7683 709.791 78.1274C709.584 79.789 709.612 81.449 709.875 83.0574C715.608 83.9967 721.711 81.9192 726.101 77.5339C727.636 75.9879 728.908 74.2067 729.859 72.2736H729.858Z" fill="#F1B31C"/>
<path d="M729.394 53.7319C729.349 54.3265 729.317 54.9206 729.299 55.5139C731.559 55.075 733.89 55.7871 735.518 57.4142C737.165 59.0625 737.873 61.4285 737.401 63.7103C747.228 63.2078 756.833 58.8439 764.123 51.5697C766.197 49.4771 768.049 47.1782 769.644 44.7171C767.773 46.4208 765.748 47.9593 763.598 49.3107C753.102 55.8536 740.412 57.4938 729.394 53.7318L729.394 53.7319Z" fill="#D22F27"/>
<path d="M726.387 67.4319C727.596 66.8247 728.777 66.1572 729.929 65.4347C733.323 63.3065 736.426 60.7061 739.137 57.7192L739.141 57.7153C741.752 54.811 743.966 51.5782 745.714 48.115C745.799 47.9478 745.848 47.765 745.86 47.5779C741.139 46.5317 725.24 61.8154 726.387 67.4319Z" fill="#61B2E4"/>
<path d="M760.229 40.9583C755.679 40.9583 751.978 37.2582 751.978 32.7094C751.978 28.1607 755.679 24.4606 760.229 24.4606C764.779 24.4606 768.481 28.1607 768.481 32.7094C768.481 37.2582 764.779 40.9583 760.229 40.9583ZM760.229 27.2101C757.196 27.2101 754.728 29.6764 754.728 32.7094C754.728 35.7424 757.196 38.2088 760.229 38.2088C763.262 38.2088 765.73 35.7424 765.73 32.7094C765.73 29.6764 763.262 27.2101 760.229 27.2101Z" fill="black"/>
<path d="M721.685 62.5875C719.354 63.5712 717.209 65.0146 715.389 66.8247C711.003 71.2179 708.928 77.3239 709.874 83.0567C715.608 83.9958 721.711 81.9183 726.101 77.5332C727.912 75.7132 729.357 73.5692 730.342 71.239" stroke="black" stroke-width="1.949" stroke-miterlimit="10" stroke-linecap="round" stroke-linejoin="round"/>
<path d="M713.726 49.6514C712.768 50.5542 711.855 51.499 710.992 52.4824C715.808 53.7758 720.415 55.9837 724.548 58.9801C724.862 58.4051 725.257 57.8775 725.719 57.4133C726.684 56.4501 727.912 55.7932 729.249 55.5247C729.542 49.8987 731.105 44.2887 733.823 39.1164C733.826 39.1112 733.828 39.1061 733.831 39.1008C730.157 39.8907 726.582 41.1742 723.219 42.9111C719.752 44.7208 716.552 46.9929 713.726 49.6514Z" stroke="black" stroke-width="1.949" stroke-miterlimit="10" stroke-linecap="round" stroke-linejoin="round"/>
<path d="M737.407 63.6653C737.14 65.0069 736.482 66.2397 735.516 67.2079C735.045 67.6764 734.509 68.0747 733.925 68.3907C736.929 72.5179 739.145 77.1194 740.446 81.9332C741.431 81.0699 742.378 80.1574 743.282 79.1992C745.94 76.3737 748.211 73.1747 750.02 69.7094C751.758 66.3482 753.041 62.7758 753.832 59.1047C748.653 61.8192 743.038 63.3785 737.407 63.6654L737.407 63.6653Z" stroke="black" stroke-width="1.949" stroke-miterlimit="10" stroke-linecap="round" stroke-linejoin="round"/>
<path d="M737.208 60.2014C737.583 61.4324 737.556 62.5512 737.399 63.7076C747.226 63.2061 756.833 58.8422 764.125 51.5671C773.445 42.2317 777.852 29.2574 775.841 17.0754C763.658 15.0803 750.691 19.4949 741.364 28.8126C734.097 36.1056 729.742 45.7071 729.247 55.5265C730.555 55.2617 731.884 55.3957 733.094 55.8581" stroke="black" stroke-width="1.949" stroke-miterlimit="10" stroke-linecap="round" stroke-linejoin="round"/>
<path d="M744.489 47.4944H744.489C741.134 49.1865 737.999 51.3314 735.184 53.8617C732.288 56.4882 729.767 59.4944 727.705 62.7799C727.005 63.8953 726.36 65.04 725.772 66.2096" stroke="black" stroke-width="1.949" stroke-miterlimit="10" stroke-linecap="round" stroke-linejoin="round"/>
</g>
<defs>
<clipPath id="clip0">
<rect width="100" height="100" fill="white" transform="translate(693)"/>
</clipPath>
</defs>
</svg>
